<svg xmlns="http://www.w3.org/2000/svg" xmlns:xlink="http://www.w3.org/1999/xlink" width="375" viewBox="0 0 375 375" height="375" version="1.0"><defs><g id="b"><path d="M 8.941406 -1.121094 L 2.976562 -1.121094 L 2.976562 -4.960938 L 8.300781 -4.960938 L 8.300781 -6.078125 L 2.976562 -6.078125 L 2.976562 -9.917969 L 8.78125 -9.917969 L 8.78125 -11.039062 L 1.601562 -11.039062 L 1.601562 0 L 8.941406 0 Z M 8.941406 -1.121094"/></g><g id="c"><path d="M 5.023438 -11.261719 C 2.992188 -11.261719 1.34375 -10.0625 1.34375 -8.160156 C 1.34375 -6.335938 2.703125 -5.550781 4.65625 -5.101562 C 6.589844 -4.65625 7.359375 -4.046875 7.359375 -2.703125 C 7.359375 -1.550781 6.335938 -0.863281 5.070312 -0.863281 C 3.632812 -0.863281 2.625 -1.679688 2.304688 -3.136719 L 0.832031 -3.136719 C 1.070312 -1.007812 2.609375 0.222656 5.039062 0.222656 C 7.167969 0.222656 8.832031 -1.023438 8.832031 -2.960938 C 8.832031 -4.832031 7.613281 -5.824219 5.183594 -6.382812 C 3.503906 -6.765625 2.816406 -7.277344 2.816406 -8.480469 C 2.816406 -9.628906 3.742188 -10.175781 4.910156 -10.175781 C 6.304688 -10.175781 7.117188 -9.375 7.246094 -7.984375 L 8.71875 -7.984375 C 8.511719 -9.871094 7.3125 -11.261719 5.023438 -11.261719 Z M 5.023438 -11.261719"/></g><g id="d"><path d="M 9.789062 -9.917969 L 9.789062 -11.039062 L 0.542969 -11.039062 L 0.542969 -9.917969 L 4.480469 -9.917969 L 4.480469 0 L 5.855469 0 L 5.855469 -9.917969 Z M 9.789062 -9.917969"/></g><g id="e"><path d="M 1.617188 -1.824219 C 1.023438 -1.824219 0.59375 -1.390625 0.59375 -0.800781 C 0.59375 -0.207031 1.023438 0.222656 1.617188 0.222656 C 2.207031 0.222656 2.640625 -0.207031 2.640625 -0.800781 C 2.640625 -1.390625 2.207031 -1.824219 1.617188 -1.824219 Z M 1.617188 -1.824219"/></g><g id="g"><path d="M 2.960938 -1.121094 L 5.726562 -3.855469 C 7.597656 -5.695312 8.414062 -6.71875 8.414062 -8.222656 C 8.414062 -9.871094 7.3125 -11.261719 5.054688 -11.261719 C 2.847656 -11.261719 1.472656 -10.046875 1.246094 -7.742188 L 1.230469 -7.582031 L 2.609375 -7.582031 L 2.625 -7.742188 C 2.785156 -9.292969 3.472656 -10.175781 4.894531 -10.175781 C 6.222656 -10.175781 6.878906 -9.199219 6.878906 -8.0625 C 6.878906 -6.992188 6.253906 -6.191406 4.960938 -4.863281 L 0.960938 -0.785156 L 0.960938 0 L 8.367188 0 L 8.367188 -1.121094 Z M 2.960938 -1.121094"/></g><g id="h"><path d="M 4.640625 -11.261719 C 1.601562 -11.261719 0.65625 -8.734375 0.65625 -5.519531 C 0.65625 -2.320312 1.601562 0.222656 4.640625 0.222656 C 7.679688 0.222656 8.621094 -2.320312 8.621094 -5.519531 C 8.621094 -8.734375 7.679688 -11.261719 4.640625 -11.261719 Z M 4.640625 -0.863281 C 2.878906 -0.863281 2.191406 -2.640625 2.191406 -5.519531 C 2.191406 -8.414062 2.878906 -10.175781 4.640625 -10.175781 C 6.398438 -10.175781 7.085938 -8.414062 7.085938 -5.519531 C 7.085938 -2.640625 6.398438 -0.863281 4.640625 -0.863281 Z M 4.640625 -0.863281"/></g><g id="i"><path d="M 6.496094 -11.039062 L 5.613281 -11.039062 C 5.230469 -11.039062 4.847656 -10.957031 4.414062 -10.6875 L 2.078125 -9.230469 L 2.078125 -7.773438 L 5.121094 -9.582031 L 5.121094 0 L 6.496094 0 Z M 6.496094 -11.039062"/></g><clipPath id="a"><path d="M 38 158.863281 L 337 158.863281 L 337 215.863281 L 38 215.863281 Z M 38 158.863281"/></clipPath></defs><g clip-path="url(#a)"><path fill="#E03638" d="M 336.71875 194.488281 C 336.5625 194.359375 336.398438 194.246094 336.21875 194.152344 C 335.859375 193.941406 335.472656 193.785156 335.066406 193.6875 C 334.660156 193.589844 334.246094 193.550781 333.828125 193.574219 C 333.410156 193.597656 333.003906 193.679688 332.609375 193.824219 C 332.214844 193.96875 331.851562 194.164062 331.515625 194.414062 C 329.835938 195.589844 328.28125 196.917969 326.855469 198.394531 C 324.546875 200.910156 321.742188 202.636719 318.449219 203.570312 C 318.140625 203.683594 317.828125 203.765625 317.507812 203.816406 C 317.1875 203.871094 316.863281 203.890625 316.539062 203.886719 C 316.214844 203.878906 315.894531 203.84375 315.574219 203.773438 C 315.257812 203.707031 314.945312 203.613281 314.644531 203.488281 C 314.347656 203.367188 314.058594 203.214844 313.785156 203.039062 C 313.515625 202.863281 313.261719 202.660156 313.027344 202.4375 C 312.792969 202.214844 312.578125 201.972656 312.390625 201.707031 C 312.199219 201.445312 312.035156 201.167969 311.898438 200.875 C 311.34375 199.867188 311.003906 198.730469 310.507812 197.679688 C 310.289062 197.304688 310.144531 196.90625 310.070312 196.480469 C 310 196.050781 310.007812 195.625 310.089844 195.203125 C 310.175781 194.777344 310.332031 194.382812 310.566406 194.015625 C 310.796875 193.648438 311.082031 193.335938 311.429688 193.074219 C 315.355469 189.296875 318.945312 185.226562 320.675781 179.949219 C 321.304688 177.980469 321.832031 175.925781 320.675781 174 C 320.339844 173.488281 319.9375 173.039062 319.46875 172.644531 C 319 172.253906 318.484375 171.9375 317.921875 171.695312 C 317.359375 171.453125 316.773438 171.296875 316.164062 171.230469 C 315.554688 171.160156 314.949219 171.179688 314.34375 171.289062 C 307.179688 171.945312 301.4375 175.136719 297.835938 181.496094 C 296.859375 183.136719 296.191406 184.894531 295.828125 186.765625 C 295.46875 188.636719 295.433594 190.515625 295.726562 192.402344 C 296.207031 195.316406 297.027344 198.132812 297.71875 201.152344 C 296.003906 202.171875 294.316406 201.589844 293.320312 199.386719 C 291.230469 194.246094 289.453125 189.003906 287.988281 183.652344 C 287.691406 182.3125 287.171875 181.058594 286.433594 179.898438 C 285.699219 178.734375 284.785156 177.730469 283.695312 176.886719 C 279.84375 174.304688 275.929688 174.976562 273.28125 178.769531 C 271.742188 181.269531 270.804688 183.976562 270.46875 186.890625 C 269.457031 192.3125 268.664062 197.769531 267.652344 203.175781 C 267.382812 204.964844 266.613281 206.5 265.339844 207.785156 C 264.964844 207.042969 264.78125 206.253906 264.78125 205.421875 C 265.28125 201.601562 265.941406 197.8125 266.453125 193.992188 C 267.183594 188.480469 267.917969 182.96875 268.519531 177.457031 C 268.605469 177.15625 268.625 176.855469 268.585938 176.550781 C 268.542969 176.242188 268.441406 175.957031 268.28125 175.691406 C 268.121094 175.429688 267.914062 175.207031 267.65625 175.027344 C 267.402344 174.851562 267.125 174.730469 266.820312 174.671875 C 264.175781 173.609375 261.441406 173.257812 258.613281 173.605469 C 258.078125 173.648438 257.558594 173.769531 257.0625 173.972656 C 256.5625 174.179688 256.105469 174.453125 255.695312 174.796875 C 255.28125 175.140625 254.933594 175.542969 254.644531 175.996094 C 254.359375 176.449219 254.148438 176.9375 254.015625 177.457031 C 253.75 178.621094 253.457031 179.789062 253.179688 180.953125 C 251.507812 188.023438 248.578125 194.53125 244.386719 200.480469 C 243.449219 201.808594 242.335938 203.03125 241.3125 204.300781 C 241.035156 203.949219 240.988281 203.761719 241.019531 203.570312 C 241.457031 199.328125 241.914062 195.085938 242.335938 190.839844 C 242.675781 187.472656 243.039062 184.121094 243.214844 180.75 C 243.246094 180.292969 243.207031 179.839844 243.097656 179.390625 C 242.984375 178.945312 242.808594 178.523438 242.566406 178.128906 C 242.328125 177.738281 242.03125 177.390625 241.683594 177.089844 C 241.332031 176.785156 240.945312 176.542969 240.519531 176.363281 C 239.511719 175.847656 238.445312 175.492188 237.328125 175.296875 C 234.308594 174.859375 230.644531 175.53125 228.859375 179.101562 C 227.648438 181.308594 226.183594 183.328125 224.464844 185.167969 C 223.957031 185.800781 223.332031 186.285156 222.597656 186.625 C 221.859375 186.964844 221.085938 187.128906 220.273438 187.109375 C 220.609375 185.242188 220.902344 183.464844 221.226562 181.699219 C 222.117188 177.488281 222.304688 173.242188 221.796875 168.96875 C 221.621094 167.480469 221.199219 166.066406 220.527344 164.726562 C 219.855469 163.386719 218.976562 162.199219 217.886719 161.167969 C 217.667969 160.921875 217.425781 160.710938 217.15625 160.527344 C 216.886719 160.347656 216.597656 160.203125 216.289062 160.09375 C 215.980469 159.984375 215.664062 159.917969 215.339844 159.890625 C 215.015625 159.863281 214.691406 159.875 214.371094 159.929688 C 214.046875 159.984375 213.738281 160.082031 213.441406 160.214844 C 213.144531 160.347656 212.867188 160.515625 212.613281 160.71875 C 212.359375 160.925781 212.136719 161.15625 211.941406 161.417969 C 211.75 161.679688 211.589844 161.960938 211.46875 162.261719 C 210.667969 163.859375 210.003906 165.511719 209.476562 167.21875 C 208.410156 170.722656 208.28125 174.261719 209.09375 177.835938 C 210.109375 182.140625 211.996094 186.027344 214.75 189.5 C 215.03125 189.832031 215.160156 190.21875 215.132812 190.652344 C 213.945312 194.632812 212.253906 198.390625 210.0625 201.921875 C 209.535156 202.753906 208.976562 202.796875 208.597656 201.921875 C 207.929688 200.425781 207.394531 198.878906 207 197.285156 C 205.667969 191.453125 204.421875 185.519531 203.175781 179.628906 C 202.421875 175.105469 201.238281 170.695312 199.617188 166.402344 C 197.300781 161.007812 192.597656 159.78125 187.398438 161.574219 C 184.886719 162.652344 182.886719 164.328125 181.390625 166.605469 C 180.261719 168.066406 179.191406 169.523438 178.007812 171.199219 C 177.859375 170.984375 177.730469 170.761719 177.609375 170.527344 C 176.722656 167.632812 175.347656 164.988281 173.480469 162.597656 C 172.886719 161.722656 172.128906 161.03125 171.199219 160.527344 C 170.269531 160.019531 169.277344 159.75 168.21875 159.722656 C 166.859375 159.332031 165.472656 159.132812 164.058594 159.125 C 152.777344 158.949219 141.480469 158.746094 130.199219 158.9375 C 128.261719 158.960938 126.339844 159.175781 124.445312 159.582031 C 122.546875 159.992188 120.710938 160.585938 118.933594 161.359375 C 117.15625 162.136719 115.472656 163.082031 113.890625 164.195312 C 112.304688 165.3125 110.84375 166.570312 109.515625 167.976562 C 103.816406 173.808594 96.957031 176.960938 88.769531 176.582031 C 75.160156 175.953125 61.476562 178.15625 47.910156 175.328125 C 45.785156 174.902344 43.324219 176.363281 40.992188 176.535156 C 38.664062 176.710938 38.0625 177.675781 38.0625 179.757812 C 38.136719 184.644531 38.0625 189.527344 38.136719 194.339844 C 38.136719 195.230469 38.503906 196.804688 38.941406 196.894531 C 42.519531 197.664062 46.136719 198.203125 49.785156 198.511719 C 51.484375 198.628906 53.253906 197.59375 55 197.578125 C 66.410156 197.492188 77.824219 197.578125 89.238281 197.578125 C 90.964844 197.503906 92.679688 197.609375 94.382812 197.890625 C 96.085938 198.175781 97.742188 198.628906 99.351562 199.257812 C 100.960938 199.886719 102.484375 200.671875 103.929688 201.617188 C 105.371094 202.5625 106.703125 203.648438 107.917969 204.867188 C 115.710938 212.816406 125.03125 215.730469 135.898438 215.398438 C 142.332031 215.238281 147.035156 212.84375 149.832031 207.085938 C 152.878906 200.828125 155.695312 194.5 158.742188 188.214844 C 160.308594 184.9375 161.949219 181.699219 163.941406 177.660156 C 164.996094 179.539062 165.875 180.984375 166.609375 182.355469 C 167.414062 185.125 168.21875 187.910156 168.996094 190.695312 C 170.769531 197.023438 172.410156 203.394531 174.253906 209.652344 C 174.496094 210.660156 174.917969 211.59375 175.515625 212.441406 C 176.109375 213.292969 176.84375 214.007812 177.714844 214.582031 C 178.15625 214.867188 178.621094 215.105469 179.113281 215.296875 C 179.605469 215.488281 180.113281 215.628906 180.632812 215.714844 C 181.15625 215.800781 181.679688 215.832031 182.207031 215.8125 C 182.734375 215.789062 183.253906 215.714844 183.765625 215.585938 C 184.277344 215.457031 184.773438 215.277344 185.246094 215.046875 C 185.722656 214.816406 186.167969 214.539062 186.585938 214.21875 C 187 213.894531 187.378906 213.535156 187.722656 213.132812 C 188.066406 212.730469 188.363281 212.300781 188.613281 211.839844 C 190.460938 208.660156 191.792969 205.191406 193.359375 201.863281 C 193.488281 201.605469 193.636719 201.359375 193.800781 201.121094 C 195.046875 204.445312 196.160156 207.667969 197.460938 210.804688 C 197.777344 211.667969 198.257812 212.425781 198.90625 213.078125 C 199.554688 213.734375 200.308594 214.222656 201.167969 214.550781 C 201.859375 214.832031 202.574219 214.996094 203.316406 215.035156 C 204.058594 215.078125 204.789062 215 205.503906 214.796875 C 206.222656 214.59375 206.886719 214.28125 207.496094 213.855469 C 208.105469 213.433594 208.628906 212.921875 209.066406 212.320312 C 212.082031 208.851562 213.550781 204.5625 215.277344 200.4375 C 216.566406 197.332031 217.753906 194.164062 219.042969 191.058594 C 219.234375 190.625 219.5625 190.347656 220.023438 190.230469 C 221.15625 190.085938 222.230469 189.746094 223.238281 189.214844 C 224.246094 188.683594 225.128906 187.992188 225.886719 187.136719 C 226.71875 186.304688 227.539062 185.429688 228.507812 184.425781 C 228.53125 184.8125 228.53125 185.203125 228.507812 185.59375 C 228.242188 188.347656 227.9375 191.117188 227.703125 193.890625 C 227.46875 196.660156 227.246094 199.574219 227.1875 202.433594 C 227.148438 203.28125 227.21875 204.117188 227.410156 204.945312 C 227.601562 205.773438 227.902344 206.558594 228.308594 207.304688 C 228.71875 208.050781 229.21875 208.726562 229.816406 209.332031 C 230.410156 209.9375 231.078125 210.453125 231.816406 210.875 C 233.898438 212.160156 235.980469 213.441406 238.585938 212.84375 C 239.625 212.539062 240.5625 212.039062 241.398438 211.351562 C 242.230469 210.664062 242.894531 209.839844 243.390625 208.878906 C 246.117188 204.503906 248.667969 199.910156 251.257812 195.40625 C 251.554688 194.910156 251.742188 194.382812 251.992188 193.875 C 252.242188 193.363281 252.519531 192.925781 252.785156 192.417969 C 252.941406 192.621094 253 192.847656 252.960938 193.101562 C 252.117188 198.0625 252.367188 202.964844 253.707031 207.816406 C 253.785156 208.375 253.992188 208.886719 254.324219 209.347656 C 254.660156 209.804688 255.085938 210.160156 255.597656 210.410156 C 258.0625 211.277344 260.601562 211.675781 263.214844 211.605469 C 263.996094 211.6875 264.75 211.578125 265.476562 211.285156 C 266.203125 210.992188 266.816406 210.542969 267.316406 209.945312 C 268.066406 208.988281 268.621094 207.925781 268.972656 206.765625 C 269.9375 202.871094 270.65625 198.917969 271.582031 195.011719 C 271.941406 193.664062 272.453125 192.375 273.117188 191.148438 C 273.542969 190.300781 274.363281 190.359375 274.832031 191.148438 C 275.308594 191.980469 275.699219 192.851562 276.003906 193.757812 C 277.574219 198 278.933594 202.332031 280.722656 206.472656 C 282.1875 209.988281 285.394531 211.5625 288.398438 210.542969 C 290.566406 209.792969 292.628906 208.820312 294.582031 207.625 C 296.40625 206.40625 298.164062 205.101562 299.855469 203.703125 C 301.152344 204.882812 302.519531 205.976562 303.957031 206.984375 C 305.792969 208.046875 307.75 208.792969 309.824219 209.222656 C 311.902344 209.648438 313.996094 209.742188 316.105469 209.492188 C 318.277344 209.292969 320.363281 208.761719 322.359375 207.886719 C 325.894531 206.105469 328.859375 203.640625 331.253906 200.496094 C 332.335938 199.210938 333.375 197.871094 334.550781 196.675781 C 335.289062 196.007812 336.085938 195.414062 336.9375 194.894531 C 336.878906 194.75 336.808594 194.613281 336.71875 194.488281 Z M 189.625 202.945312 C 189.082031 204.503906 188.160156 204.59375 187.105469 203.292969 C 185.628906 201.253906 184.652344 199 184.175781 196.527344 C 183.265625 193.074219 182.476562 189.574219 181.742188 186.085938 C 181.199219 183.492188 180.789062 180.867188 180.363281 178.242188 C 179.808594 174.742188 181.667969 172.265625 184.042969 170.078125 C 184.1875 169.929688 184.90625 170.078125 184.996094 170.28125 C 185.753906 171.824219 186.398438 173.414062 186.929688 175.050781 C 188.203125 179.527344 189.347656 184.03125 190.519531 188.539062 C 191.015625 190.402344 191.46875 192.269531 191.984375 194.152344 C 192.03125 194.382812 192.066406 194.617188 192.085938 194.851562 L 192.246094 194.925781 C 191.308594 197.59375 190.5625 200.304688 189.625 202.945312 Z M 216.347656 179.847656 C 216.347656 181.640625 216.113281 183.433594 215.980469 185.226562 C 215.109375 184.78125 214.367188 184.179688 213.757812 183.414062 C 213.144531 182.652344 212.71875 181.796875 212.480469 180.851562 C 211.902344 178.453125 211.507812 176.023438 211.292969 173.5625 C 211.257812 172.261719 211.492188 171.015625 211.996094 169.816406 C 212.316406 169.085938 212.859375 168.597656 213.621094 168.355469 C 214.441406 168.167969 214.898438 169.011719 215.085938 169.816406 C 216.078125 173.085938 216.496094 176.433594 216.347656 179.847656 Z M 313.773438 175.851562 C 313.96875 175.554688 314.207031 175.300781 314.488281 175.085938 C 314.769531 174.871094 315.078125 174.707031 315.414062 174.597656 C 315.75 174.488281 316.097656 174.4375 316.449219 174.445312 C 316.804688 174.453125 317.148438 174.515625 317.480469 174.640625 C 317.699219 174.695312 317.894531 174.785156 318.074219 174.917969 C 318.253906 175.050781 318.402344 175.210938 318.515625 175.402344 C 318.632812 175.589844 318.707031 175.796875 318.742188 176.015625 C 318.773438 176.234375 318.765625 176.453125 318.710938 176.667969 C 318.351562 178.84375 317.691406 180.925781 316.722656 182.914062 C 315.753906 184.898438 314.523438 186.707031 313.027344 188.332031 C 311.988281 189.558594 310.933594 190.769531 309.714844 192.183594 C 309.363281 186.058594 309.820312 180.515625 313.773438 175.851562 Z M 235.011719 172.601562 C 235.679688 172.667969 236.34375 172.640625 237.007812 172.519531 C 237.667969 172.398438 238.296875 172.191406 238.898438 171.894531 C 239.5 171.59375 240.050781 171.21875 240.542969 170.765625 C 241.039062 170.316406 241.460938 169.800781 241.808594 169.230469 C 242.378906 168.425781 242.707031 167.53125 242.796875 166.546875 C 242.882812 165.566406 242.714844 164.625 242.292969 163.734375 C 241.972656 163.0625 239.890625 160.816406 239.113281 161.242188 L 235.730469 160.453125 C 234.703125 160.613281 233.707031 160.699219 232.800781 160.949219 C 228.875 161.953125 228.007812 165.46875 229.238281 168.617188 C 229.460938 169.203125 229.765625 169.742188 230.152344 170.234375 C 230.535156 170.726562 230.988281 171.148438 231.503906 171.503906 C 232.019531 171.859375 232.574219 172.128906 233.175781 172.316406 C 233.773438 172.503906 234.386719 172.597656 235.011719 172.601562 Z M 235.011719 172.601562"/></g><g><use x="140.048" y="248.9" xmlns:xlink="http://www.w3.org/1999/xlink" xlink:href="#b" xlink:type="simple" xlink:actuate="onLoad" xlink:show="embed"/></g><g><use x="152.222" y="248.9" xmlns:xlink="http://www.w3.org/1999/xlink" xlink:href="#c" xlink:type="simple" xlink:actuate="onLoad" xlink:show="embed"/></g><g><use x="164.364" y="248.9" xmlns:xlink="http://www.w3.org/1999/xlink" xlink:href="#d" xlink:type="simple" xlink:actuate="onLoad" xlink:show="embed"/></g><g><use x="176.937" y="248.9" xmlns:xlink="http://www.w3.org/1999/xlink" xlink:href="#e" xlink:type="simple" xlink:actuate="onLoad" xlink:show="embed"/></g><g><use x="183.241" y="248.9" xmlns:xlink="http://www.w3.org/1999/xlink" xlink:href="#f" xlink:type="simple" xlink:actuate="onLoad" xlink:show="embed"/></g><g><use x="189.48" y="248.9" xmlns:xlink="http://www.w3.org/1999/xlink" xlink:href="#g" xlink:type="simple" xlink:actuate="onLoad" xlink:show="embed"/></g><g><use x="201.541" y="248.9" xmlns:xlink="http://www.w3.org/1999/xlink" xlink:href="#h" xlink:type="simple" xlink:actuate="onLoad" xlink:show="embed"/></g><g><use x="213.603" y="248.9" xmlns:xlink="http://www.w3.org/1999/xlink" xlink:href="#g" xlink:type="simple" xlink:actuate="onLoad" xlink:show="embed"/></g><g><use x="225.665" y="248.9" xmlns:xlink="http://www.w3.org/1999/xlink" xlink:href="#i" xlink:type="simple" xlink:actuate="onLoad" xlink:show="embed"/></g></svg>