<svg xmlns="http://www.w3.org/2000/svg" xmlns:xlink="http://www.w3.org/1999/xlink" width="375" viewBox="0 0 375 375" height="375" version="1.0"><defs><clipPath id="d"><path d="M 1.039062 0.507812 L 264.289062 0.507812 L 264.289062 263.757812 L 1.039062 263.757812 Z M 1.039062 0.507812"/></clipPath><clipPath id="c"><path d="M0 0H265V265H0z"/></clipPath><clipPath id="e"><path d="M 135.722656 101.351562 L 302.105469 101.351562 L 302.105469 260.347656 L 135.722656 260.347656 Z M 135.722656 101.351562"/></clipPath><filter x="0%" y="0%" width="100%" xmlns:xlink="http://www.w3.org/1999/xlink" xlink:type="simple" xlink:actuate="onLoad" height="100%" id="a" xlink:show="other"><feColorMatrix values="0 0 0 0 1 0 0 0 0 1 0 0 0 0 1 0 0 0 1 0" color-interpolation-filters="sRGB"/></filter><mask id="b"><g filter="url(#a)"><path fill-opacity=".749" d="M-37.5 -37.5H412.5V412.5H-37.5z"/></g></mask></defs><path fill="#FFF" d="M-37.5 -37.5H412.5V412.5H-37.5z"/><path fill="#FFF" d="M-37.5 -37.5H412.5V412.5H-37.5z"/><path fill="#9F3236" d="M-37.5 -37.5H412.5V412.5H-37.5z"/><g mask="url(#b)"><g><g clip-path="url(#c)" transform="translate(55 43)"><g clip-path="url(#d)"><path fill="#EFEAD3" d="M 132.617188 263.757812 C 60.101562 263.757812 1.039062 204.691406 1.039062 132.085938 C 1.039062 59.480469 60.101562 0.507812 132.617188 0.507812 C 205.132812 0.507812 264.199219 59.570312 264.199219 132.085938 C 264.289062 204.691406 205.222656 263.757812 132.617188 263.757812 Z M 132.617188 2.734375 C 61.261719 2.734375 3.265625 60.730469 3.265625 132.085938 C 3.265625 203.445312 61.347656 261.53125 132.617188 261.53125 C 203.886719 261.53125 262.0625 203.445312 262.0625 132.085938 C 262.0625 60.730469 203.976562 2.734375 132.617188 2.734375 Z M 132.617188 2.734375"/></g></g></g></g><g clip-path="url(#e)"><path fill="#EFEAD3" d="M 214.246094 140.703125 C 212.6875 144.039062 212.214844 148.90625 212.921875 154.324219 C 213.476562 158.578125 213.476562 158.554688 212.914062 160.21875 C 208.042969 174.632812 197.28125 184.492188 182.371094 188.210938 C 181.5 188.425781 180.625 188.605469 180.421875 188.605469 C 180.007812 188.605469 177.335938 187.9375 172.535156 186.640625 C 169.371094 185.78125 169.34375 185.769531 167.644531 184.65625 C 164.835938 182.8125 161.007812 179.464844 154.765625 173.394531 C 153.050781 171.726562 150.53125 169.375 149.164062 168.167969 C 147.796875 166.960938 146.027344 165.359375 145.226562 164.605469 C 143.800781 163.261719 143.769531 163.21875 143.152344 161.613281 C 139.636719 152.472656 139.144531 142.558594 141.652344 131.367188 C 143.167969 124.621094 144.964844 119.234375 147.941406 112.519531 C 149.785156 108.355469 150.808594 106.460938 151.191406 106.496094 C 151.355469 106.511719 152.925781 106.734375 154.675781 106.988281 C 156.425781 107.246094 158.59375 107.53125 159.492188 107.625 C 160.386719 107.71875 161.785156 107.863281 162.597656 107.949219 C 170.777344 108.792969 191.519531 108.878906 197.542969 108.089844 C 201.695312 107.542969 203.597656 106.878906 203.597656 105.972656 C 203.597656 105.5625 204.726562 107.542969 206.09375 110.347656 C 210.429688 119.261719 213.457031 128.914062 214.777344 138.039062 L 214.949219 139.207031 Z M 213.925781 161.535156 C 214.03125 161.273438 214.074219 161.324219 214.203125 161.847656 C 214.285156 162.1875 214.726562 163.78125 215.183594 165.382812 C 215.640625 166.988281 216.230469 169.289062 216.5 170.503906 C 216.953125 172.535156 216.980469 172.855469 216.898438 174.644531 C 216.789062 177.050781 216.644531 177.828125 215.769531 180.847656 C 214.886719 183.878906 213.296875 187.074219 211.585938 189.25 C 210.460938 190.679688 210.4375 190.703125 209.546875 190.882812 C 206.582031 191.484375 202.777344 191.523438 196.53125 191.023438 C 194.910156 190.894531 192.28125 190.714844 190.695312 190.628906 C 187.054688 190.433594 186.460938 190.308594 185.585938 189.554688 L 184.902344 188.96875 L 187.378906 188.132812 C 190.183594 187.1875 193.925781 185.398438 196.144531 183.949219 C 204.929688 178.195312 209.8125 172.046875 213.925781 161.535156 Z M 184.183594 189.617188 C 183.441406 189.460938 183.226562 189.226562 183.824219 189.226562 C 184.085938 189.226562 184.398438 189.339844 184.511719 189.476562 C 184.703125 189.707031 184.671875 189.71875 184.183594 189.617188 Z M 141.355469 161.695312 C 141.207031 161.636719 140.691406 161.519531 140.207031 161.433594 C 139.4375 161.296875 139.300781 161.214844 139.132812 160.808594 C 138.765625 159.917969 138.878906 159.4375 139.605469 158.792969 C 139.972656 158.46875 140.332031 158.203125 140.402344 158.203125 C 140.476562 158.203125 140.714844 158.8125 140.9375 159.558594 C 141.15625 160.304688 141.402344 161.113281 141.484375 161.359375 C 141.605469 161.742188 141.589844 161.785156 141.355469 161.695312 Z M 154.1875 186.667969 C 155.28125 187.945312 156.761719 189.761719 157.480469 190.699219 C 159.378906 193.171875 160.074219 193.796875 161.898438 194.65625 C 162.753906 195.058594 164.183594 195.648438 165.082031 195.964844 C 166.921875 196.617188 172.832031 198.941406 173.101562 199.117188 C 173.289062 199.238281 173.507812 204.117188 173.324219 204.117188 C 173.265625 204.117188 173.152344 204.054688 173.074219 203.980469 C 172.921875 203.835938 170.433594 202.390625 169.019531 201.625 C 167.945312 201.042969 163.167969 198.09375 161.6875 197.105469 C 161.035156 196.664062 159.925781 195.863281 159.226562 195.320312 C 158.074219 194.421875 157.816406 194.121094 156.492188 192.050781 C 155.042969 189.796875 151.269531 183.773438 150.832031 183.019531 C 150.515625 182.476562 151.855469 183.933594 154.1875 186.667969 Z M 297.328125 200.941406 C 295.875 201.070312 291.964844 201.382812 288.632812 201.636719 C 285.300781 201.890625 281 202.238281 279.078125 202.410156 C 277.15625 202.578125 273.976562 202.824219 272.011719 202.953125 C 270.046875 203.082031 267.429688 203.296875 266.1875 203.429688 C 259.355469 204.164062 257.042969 204.25 253.996094 203.890625 C 252.179688 203.671875 248.988281 202.941406 248.105469 202.542969 C 247.554688 202.292969 247.300781 201.710938 244.414062 194.113281 C 242.167969 188.203125 241.445312 186.476562 240.027344 183.59375 C 239.46875 182.460938 238.230469 180.246094 237.28125 178.671875 C 234.972656 174.847656 233.449219 172.164062 231.203125 167.972656 C 230.175781 166.054688 228.824219 163.566406 228.203125 162.441406 C 225.394531 157.371094 222.730469 150.660156 221.9375 146.640625 C 221.617188 145.015625 221.402344 143.328125 221.140625 140.363281 C 220.941406 138.121094 220.660156 137.222656 219.996094 136.714844 C 219.09375 136.027344 217.941406 136.324219 216.550781 137.601562 C 215.90625 138.195312 215.867188 138.210938 215.867188 137.863281 C 215.867188 137.289062 214.847656 132.484375 214.246094 130.222656 C 212.425781 123.375 209.285156 115.199219 206.234375 109.375 C 204.035156 105.175781 203.417969 104.601562 200.027344 103.625 C 196.65625 102.65625 191.957031 101.988281 185.503906 101.566406 C 182.355469 101.359375 171.023438 101.277344 167.957031 101.4375 C 163.039062 101.691406 162.125 101.765625 160.265625 102.046875 C 157.773438 102.421875 156.890625 102.625 156.484375 102.90625 C 156.082031 103.1875 155.9375 103.191406 159.4375 102.832031 C 161.046875 102.664062 163.972656 102.457031 165.9375 102.363281 C 169.605469 102.195312 180.828125 102.132812 182.53125 102.277344 C 183.058594 102.320312 184.8125 102.425781 186.4375 102.515625 C 193.730469 102.914062 200.746094 104.164062 202.628906 105.394531 C 203.804688 106.164062 201.84375 106.910156 197.386719 107.386719 C 193.6875 107.78125 192.867188 107.8125 183.640625 107.890625 C 172.796875 107.980469 169.34375 107.820312 159.257812 106.765625 C 155.003906 106.320312 153.074219 106.035156 152.371094 105.746094 L 151.855469 105.535156 L 152.199219 105.097656 C 152.941406 104.15625 151.660156 104.289062 150.765625 105.246094 C 149.324219 106.789062 145.121094 115.242188 143.128906 120.601562 C 139.777344 129.621094 138.128906 139.492188 138.652344 147.421875 C 138.871094 150.808594 139.480469 154.640625 140.167969 156.984375 C 140.226562 157.175781 140.023438 157.34375 139.386719 157.632812 C 137.988281 158.273438 137.554688 159.390625 138.207031 160.675781 L 138.515625 161.273438 L 137.746094 161.460938 C 137.195312 161.589844 136.839844 161.796875 136.496094 162.1875 C 135.472656 163.355469 135.464844 164.121094 136.476562 165.667969 C 137.324219 166.960938 139.902344 170.222656 141.546875 172.082031 C 142.152344 172.765625 142.886719 173.640625 143.179688 174.023438 C 143.902344 174.964844 145.90625 177.367188 146.609375 178.132812 C 146.921875 178.476562 148.003906 180.152344 149.011719 181.855469 C 150.019531 183.5625 151.40625 185.832031 152.085938 186.898438 C 152.769531 187.964844 153.710938 189.5 154.179688 190.3125 C 155.566406 192.707031 156.988281 194.839844 157.679688 195.558594 C 158.996094 196.921875 162.089844 199.003906 166.914062 201.773438 C 168.132812 202.472656 169.601562 203.347656 170.175781 203.714844 C 170.746094 204.082031 171.710938 204.636719 172.316406 204.949219 L 173.414062 205.523438 L 173.59375 208.269531 C 173.792969 211.304688 174.097656 224.816406 174.09375 230.410156 C 174.085938 238.46875 173.082031 242.828125 170.484375 246.117188 C 168.402344 248.746094 165.804688 250.839844 163.054688 252.109375 C 161.695312 252.734375 158.386719 253.78125 154.367188 254.859375 C 151.605469 255.59375 149.863281 256.253906 149.863281 256.558594 C 149.863281 256.636719 149.949219 256.703125 150.058594 256.703125 C 150.414062 256.703125 159.535156 254.375 160.8125 253.957031 C 162.625 253.367188 164.644531 252.382812 166.324219 251.273438 C 168.910156 249.570312 171.714844 246.574219 172.761719 244.402344 C 173.394531 243.078125 174.261719 240.167969 174.660156 238.003906 C 174.992188 236.207031 174.996094 233.4375 174.695312 212.449219 C 174.597656 205.554688 174.550781 199.882812 174.585938 199.84375 C 174.625 199.808594 175.324219 200.0625 176.144531 200.40625 C 177.578125 201.015625 177.632812 201.058594 177.734375 201.609375 C 177.792969 201.921875 177.898438 209.855469 177.964844 219.242188 C 178.050781 230.550781 178.152344 236.800781 178.273438 237.777344 C 178.667969 240.96875 179.757812 244.5 181 246.617188 C 182.558594 249.273438 184.75 251.058594 188.300781 252.570312 C 191.671875 254 194.457031 254.753906 198.164062 255.226562 C 202.148438 255.738281 204.710938 256.371094 204.808594 256.871094 C 204.949219 257.613281 201.347656 258.394531 194.785156 259.042969 C 190.664062 259.453125 180.230469 259.609375 173.625 259.359375 C 165.050781 259.039062 156.71875 258.835938 156.3125 258.9375 C 156.089844 258.992188 155.941406 259.097656 155.988281 259.167969 C 156.105469 259.359375 156.9375 259.464844 159.644531 259.640625 C 173.828125 260.554688 188.921875 260.585938 197 259.714844 C 202.8125 259.085938 206.40625 257.585938 205.035156 256.351562 C 204.347656 255.734375 201.609375 254.957031 197.230469 254.132812 C 193.859375 253.503906 192.269531 253.082031 190.085938 252.253906 C 186.578125 250.921875 184.464844 249.53125 182.796875 247.457031 C 181.328125 245.640625 180.546875 243.894531 179.847656 240.878906 C 179.152344 237.886719 179.066406 236.105469 178.976562 222.070312 C 178.925781 214.757812 178.921875 208.769531 178.960938 208.769531 C 179.128906 208.769531 180.847656 209.890625 184.15625 212.152344 C 188 214.785156 189.136719 215.453125 190.398438 215.8125 C 192.1875 216.320312 202.726562 218.910156 209.65625 220.539062 C 217.101562 222.289062 219.523438 222.824219 227.363281 224.445312 C 229.882812 224.96875 234.632812 226.011719 237.921875 226.765625 C 246.78125 228.796875 246.257812 228.710938 256.09375 229.703125 C 262.839844 230.386719 263.96875 230.46875 268.828125 230.648438 C 271.261719 230.738281 275.804688 230.953125 278.925781 231.125 C 285.570312 231.492188 296.320312 231.699219 296.320312 231.460938 C 296.320312 231.28125 294.914062 231.175781 289.71875 230.949219 C 287.753906 230.863281 283.769531 230.65625 280.867188 230.484375 C 277.960938 230.316406 272.964844 230.035156 269.761719 229.863281 C 263.742188 229.539062 261.675781 229.359375 256.25 228.691406 C 249.21875 227.828125 247.878906 227.574219 236.601562 224.976562 C 229.757812 223.398438 224.292969 222.238281 217.421875 220.894531 C 212.410156 219.914062 191.015625 214.804688 189.476562 214.21875 C 188.734375 213.933594 185.402344 211.765625 183.019531 210.011719 C 182.25 209.445312 181.054688 208.621094 180.363281 208.179688 L 179.105469 207.375 L 179.003906 206.1875 C 178.863281 204.527344 178.878906 201.636719 179.027344 201.636719 C 179.097656 201.636719 179.21875 201.691406 179.300781 201.765625 C 179.464844 201.90625 181.226562 202.605469 185.792969 204.335938 C 189.164062 205.613281 190.199219 206.136719 191.9375 207.441406 C 192.574219 207.917969 193.148438 208.304688 193.21875 208.304688 C 193.929688 208.304688 191.613281 206.0625 189.894531 205.082031 C 189.273438 204.730469 186.707031 203.609375 184.183594 202.589844 C 181.664062 201.574219 178.941406 200.445312 178.128906 200.089844 C 177.316406 199.730469 175.21875 198.839844 173.46875 198.117188 C 165.292969 194.730469 162.753906 193.648438 161.789062 193.148438 C 160.324219 192.386719 158.984375 190.996094 154.414062 185.503906 C 152.960938 183.753906 150.835938 181.289062 149.691406 180.03125 C 148.546875 178.769531 147.058594 177.128906 146.382812 176.386719 C 143.757812 173.484375 137.503906 165.714844 136.976562 164.414062 C 136.871094 164.15625 136.5 163.605469 136.980469 163.058594 C 137.679688 162.261719 138.378906 162.242188 139.085938 162.238281 C 140.882812 162.226562 144.871094 165.292969 152.113281 172.25 C 153.992188 174.058594 156.4375 176.390625 157.550781 177.4375 C 159.582031 179.351562 164.371094 183.425781 165.742188 184.40625 C 166.148438 184.695312 166.480469 184.953125 166.480469 184.976562 C 166.480469 185 166.265625 184.945312 166.007812 184.855469 C 165.457031 184.664062 165.234375 184.792969 165.558594 185.109375 C 165.878906 185.421875 167.5625 186.027344 170.75 186.96875 C 172.289062 187.421875 174.820312 188.257812 176.382812 188.824219 C 179.15625 189.832031 183.890625 191.222656 185.582031 191.527344 C 186.054688 191.613281 188.113281 191.757812 190.164062 191.851562 C 192.214844 191.945312 195.289062 192.09375 197 192.175781 C 198.707031 192.261719 201.828125 192.328125 203.9375 192.328125 C 208.132812 192.328125 208.972656 192.222656 211.195312 191.410156 C 212.675781 190.871094 215.25 189.511719 214.96875 189.417969 C 214.863281 189.382812 214.171875 189.570312 213.4375 189.835938 C 212.703125 190.101562 212.066406 190.289062 212.023438 190.246094 C 211.984375 190.207031 212.234375 189.839844 212.578125 189.429688 C 214.28125 187.402344 216.15625 183.804688 217.023438 180.898438 C 217.851562 178.117188 218.042969 176.914062 218.042969 174.433594 C 218.042969 172.398438 217.988281 171.992188 217.347656 169.078125 C 216.964844 167.34375 216.339844 164.800781 215.960938 163.421875 C 214.152344 156.898438 213.539062 153.453125 213.539062 149.785156 C 213.539062 144.148438 215.40625 138.898438 217.808594 137.777344 C 218.714844 137.359375 219.09375 137.328125 219.542969 137.644531 C 220.042969 137.992188 220.226562 139.066406 220.378906 142.484375 C 220.628906 148.222656 221.675781 151.980469 225.148438 159.597656 C 225.566406 160.515625 228.871094 166.613281 230.820312 170.066406 C 232.257812 172.613281 233.898438 175.304688 235.847656 178.324219 C 238.867188 182.996094 240.671875 186.648438 243.421875 193.644531 C 243.792969 194.585938 244.59375 196.558594 245.207031 198.035156 C 245.820312 199.507812 246.523438 201.289062 246.773438 201.992188 C 247.519531 204.105469 248.328125 205.730469 248.527344 205.53125 C 248.695312 205.363281 248.667969 205.183594 248.207031 203.589844 C 248.136719 203.335938 248.179688 203.308594 248.5 203.402344 C 250.398438 203.964844 253.269531 204.597656 254.929688 204.820312 C 257.253906 205.132812 261.410156 205.066406 265.179688 204.65625 C 266.375 204.527344 269.242188 204.246094 271.546875 204.03125 C 273.855469 203.820312 277.453125 203.472656 279.546875 203.265625 C 281.640625 203.054688 285.378906 202.707031 287.855469 202.492188 C 296.414062 201.746094 301.535156 201.15625 302.066406 200.847656 C 302.433594 200.636719 300.273438 200.679688 297.328125 200.941406"/></g></svg>